<svg xmlns:xlink="http://www.w3.org/1999/xlink" xmlns="http://www.w3.org/2000/svg" viewBox="0 0 371 100.00000794739523" preserveAspectRatio="xMidYMid meet" class="css-1j4x1ud" id="gdhhhgce" width="503"  height="136" ><defs id="SvgjsDefs3777"></defs><g id="SvgjsG3778" featurekey="symbolFeature-0" transform="matrix(2.083361977070334,0,0,2.083361977070334,270.99862896845497,0.000003974150951116844)" fill="#FFFFFF"><title xmlns="http://www.w3.org/2000/svg">Asset 618</title><g xmlns="http://www.w3.org/2000/svg" data-name="Layer 2" fill="#FFFFFF"><g fill="#FFFFFF"><path d="M8.38,33.8,1.2,40.98A4.11537,4.11537,0,0,0,7.02,46.8l7.18-7.18A24.00963,24.00963,0,0,1,8.38,33.8Z" fill="#FFFFFF"></path><path d="M28,0A20,20,0,1,0,48,20,19.9945,19.9945,0,0,0,28,0ZM39,30.18A15,15,0,0,1,13,20,15,15,0,1,1,39,30.18Z" fill="#FFFFFF"></path><path d="M39.41408,18.58594l-6-6A1.99979,1.99979,0,1,0,30.586,15.41406L33.17189,18H18a2,2,0,0,0,0,4H33.17189L30.586,24.58594a1.99979,1.99979,0,1,0,2.82813,2.82812l6-6A1.99926,1.99926,0,0,0,39.41408,18.58594Z" fill="#FFFFFF"></path></g></g></g><g id="SvgjsG3779" featurekey="nameFeature-0" transform="matrix(2.422480691790934,0,0,2.422480691790934,-4.844961383581868,-13.069759060460736)" fill="#FFFFFF"><path d="M8 30 l0 10 l-6 0 l0 -9.96 c0 -6.64 4.88 -10.24 11.04 -10.24 c0.2 0 0.48 0 0.76 0.04 s0.6 0.12 0.88 0.16 l0 5.8 c-0.2 -0.04 -0.44 -0.08 -0.72 -0.12 s-0.52 -0.08 -0.72 -0.08 c-1 0 -1.8 0.12 -2.48 0.32 c-1.12 0.4 -2.12 1.16 -2.48 2.36 c-0.2 0.52 -0.28 1.12 -0.28 1.72 z M31.32 30 c-0.16 -2.92 -1.48 -4.64 -4.52 -4.64 c-0.84 0 -1.56 0.12 -2.16 0.36 c-1.84 0.84 -2.52 2.4 -2.52 4.32 c0 0.64 0.08 1.24 0.28 1.76 c0.6 2.08 2.4 2.84 4.4 2.84 c3.04 0 4.52 -1.64 4.52 -4.64 z M38.92 40 l-6 0 c-0.4 -1 -0.76 -2 -1 -3.04 c-1.36 2.24 -3.44 3.24 -6 3.24 c-5.72 0 -9.8 -4.8 -9.8 -10.28 c0 -6.32 4.72 -10.12 10.68 -10.12 c6.36 0 10.36 4.08 10.52 10.2 c0.04 0.52 0.04 1.12 0.04 1.84 c0 2.8 0.44 5.6 1.56 8.16 z M45.88 34.44 l13.76 0 l0 5.56 l-19.36 0 l0 -6.48 c0 -5.24 4.48 -6.56 8.72 -7.24 c0.92 -0.2 1.68 -0.36 2.28 -0.56 c0.56 -0.16 1 -0.32 1.32 -0.48 c0.28 -0.16 0.48 -0.32 0.6 -0.48 c0.12 -0.12 0.16 -0.28 0.16 -0.4 c0 -0.36 -0.24 -0.56 -0.76 -0.68 c-0.52 -0.08 -1.36 -0.12 -2.52 -0.12 c-2.36 0 -4.68 0.12 -7.04 0.4 c-0.68 0.12 -1.24 0.2 -1.72 0.32 l0 -5.6 c1.32 -0.36 2.72 -0.52 4.08 -0.68 c0.72 -0.04 1.44 -0.12 2.12 -0.16 s1.32 -0.04 1.84 -0.04 c4.52 0 9.72 1.24 9.72 6.6 c0 5.16 -4 6.2 -8.08 6.96 c-1.88 0.36 -3.2 0.76 -3.96 1.16 s-1.16 0.96 -1.16 1.64 l0 0.28 z M68.12 27.6 c0.6 0.2 1.28 0.36 2 0.44 c0.72 0.12 1.4 0.16 2.04 0.16 c0.8 0 2.84 -0.16 2.84 -1.32 c0 -1.24 -1.76 -1.28 -2.64 -1.28 c-1.76 0 -3.28 0.4 -4.24 2 z M79.44 33.76 l0 5.6 c-2.24 0.52 -4.48 0.88 -6.8 0.88 c-6.36 0 -11.08 -3.72 -11.08 -10.16 c0 -6.36 4.56 -10.28 10.6 -10.28 c4.12 0 8.88 1.96 8.88 6.64 c0 4.64 -5.04 6.36 -8.92 6.36 c-1.48 0 -2.96 -0.4 -4.32 -0.96 c0.8 2.24 3.2 2.6 5.28 2.6 c1.08 0 2.16 -0.04 3.24 -0.2 c1 -0.08 2.16 -0.2 3.12 -0.48 z M90 30 c0 2.96 1.48 4.64 4.48 4.64 c0.84 0 1.6 -0.12 2.2 -0.4 c1.12 -0.44 1.88 -1.28 2.28 -2.44 c0.16 -0.56 0.24 -1.16 0.24 -1.8 s-0.08 -1.24 -0.24 -1.8 c-0.44 -1.24 -1.12 -1.92 -2.28 -2.48 c-0.6 -0.24 -1.36 -0.36 -2.2 -0.36 c-3 0 -4.48 1.68 -4.48 4.64 z M84 12 l6 0 l0 10 c1.36 -1.56 3.2 -2.2 5.24 -2.2 c5.84 0 9.96 4.68 9.96 10.28 c0 6.32 -4.68 10.12 -10.64 10.12 c-6.2 0 -10.56 -4.08 -10.56 -10.2 l0 -18 z" fill="#FFFFFF"></path></g></svg>