<svg xmlns:xlink="http://www.w3.org/1999/xlink" xmlns="http://www.w3.org/2000/svg" viewBox="0 0 370 81.5241161596084" preserveAspectRatio="xMidYMid meet" class="" id="hadghbbh" width="370"  height="81.5241161596084" ><defs id="SvgjsDefs1001"></defs><g id="SvgjsG1007" featurekey="symbolFeature-0" transform="matrix(1.0869565217391304,0,0,1.0869565217391304,-2.1739130434782608,-11.217391304347824)" fill="#FFFFFF"><path xmlns="http://www.w3.org/2000/svg" d="M84 46h-64c-0.716 0-1.38-0.384-1.736-1.008l-16-28c-0.352-0.616-0.352-1.38 0.004-1.996 0.36-0.616 1.016-0.996 1.732-0.996h80c1.1 0 2 0.9 2 2v28c0 1.1-0.9 2-2 2zM21.16 42h60.84v-24h-74.552l13.712 24z" fill="#FFFFFF"></path><path xmlns="http://www.w3.org/2000/svg" d="M82 30h-68c-1.104 0-2-0.9-2-2s0.896-2 2-2h68c1.1 0 2 0.9 2 2s-0.9 2-2 2z" fill="#FFFFFF"></path><path xmlns="http://www.w3.org/2000/svg" d="M94 82h-6c-1.1 0-2-0.9-2-2v-16c0-1.1 0.9-2 2-2h6v4h-4v12h4v4z" fill="#FFFFFF"></path><path xmlns="http://www.w3.org/2000/svg" d="M90 78h-38c-1.1 0-2-0.9-2-2v-30h4v28h36v4z" fill="#FFFFFF"></path><path xmlns="http://www.w3.org/2000/svg" d="M86 70h-26c-1.1 0-2-0.9-2-2v-22h4v20h24v4z" fill="#FFFFFF"></path><path xmlns="http://www.w3.org/2000/svg" d="M18 42h-14c-1.104 0-2-0.9-2-2v-16c0-1.1 0.896-2 2-2h6v4h-4v12h12v4z" fill="#FFFFFF"></path></g><g id="SvgjsG1008" featurekey="nameFeature-0" transform="matrix(2.7138516418934944,0,0,2.7138516418934944,113.4867564476752,-27.02995986865382)" fill="#FFFFFF"><path d="M2.4 20 l1.8 0 l0 1.32 s0.8 -1.32 3.52 -1.32 l4.56 0 l0 1.24 c0 0.24 -0.2 0.4 -0.44 0.4 l-4.92 0 c-2.8 0 -2.72 2.88 -2.72 2.88 l0 15.48 l-1.8 0 l0 -20 z M25.64 19.96 c2.76 0 4.96 2.28 4.96 5.04 l0 14.56 c0 0.24 -0.2 0.44 -0.44 0.44 l-10.04 0 c-2.76 0 -4.96 -2.24 -4.96 -5 l0 -2.08 c0 -2.8 2.2 -5.04 4.96 -5.04 l8.24 0 c0.24 0 0.4 -0.16 0.44 -0.44 l0 -2.6 c0 -1.76 -1.4 -3.2 -3.16 -3.2 l-8.36 0 c-0.2 0 -0.4 -0.2 -0.4 -0.44 l0 -1.24 l8.76 0 z M20.119999999999997 38.24 l8.68 0 l0 -8.84 c-0.08 0.08 -0.2 0.16 -0.32 0.16 l-8.36 0 c-1.76 0 -3.16 1.44 -3.16 3.2 l0 2.32 c0 1.76 1.4 3.16 3.16 3.16 z M34.76 34.12 c0 -1.04 0.76 -2.44 1.64 -2.96 l13.92 -9.72 c0.56 -0.32 0.92 -1 0.92 -1.64 l0 -3.88 c0 -2.76 -2.08 -4.08 -4.4 -4.08 l-10.64 0 c-0.32 0 -0.56 -0.24 -0.56 -0.56 l0 -1.32 l11.2 0 c3.48 0 6.32 2.36 6.32 6.12 l0 3.8 c0 1 -0.72 2.6 -1.6 3.12 l-13.8 9.56 c-0.56 0.32 -0.92 1 -0.92 1.64 l0 4 l16.36 0 c0.32 0 0.56 0.24 0.56 0.56 l0 1.24 l-19 0 l0 -5.88 z M62.92 40 c-2.76 0 -4.96 -1.8 -4.96 -4.84 l0 -10.36 c0 -3 2.12 -4.8 4.84 -4.8 l6.32 0 c2.72 0 4.84 1.8 4.84 4.8 l0 5.44 c0 0.28 -0.2 0.48 -0.44 0.48 l-12.84 0 c-0.36 0 -0.68 -0.2 -0.88 -0.48 l-0.04 0 l0 4.88 c0 1.76 1.4 3.16 3.16 3.16 l10.28 0 c0.24 0 0.44 0.2 0.44 0.44 l0 1.28 l-10.72 0 z M69.12 21.64 l-6.32 0 c-1.72 0 -3.04 1.44 -3.04 3.2 l0 3.76 c0 0.24 0.16 0.4 0.44 0.44 l11.96 0 l0 -4.2 c0 -1.76 -1.32 -3.2 -3.04 -3.2 z M89.56 20 c2.76 0 4.96 1.88 4.96 4.88 l0 10.24 c0 3 -2.2 4.88 -4.96 4.88 l-10.28 0 c-0.24 0 -0.44 -0.2 -0.44 -0.44 l0 -29.56 l1.36 0 c0.24 0 0.44 0.2 0.44 0.44 l0 10.32 c0.04 -0.44 0.56 -0.76 1.12 -0.76 l7.8 0 z M92.8 35.16 l0 -10.32 c0 -1.76 -1.48 -3.2 -3.24 -3.2 l-8.24 0 c-0.36 0.04 -0.64 0.32 -0.68 0.72 l0 3.72 l0 12.24 l8.92 0 c1.76 0 3.24 -1.4 3.24 -3.16 z" fill="#FFFFFF"></path></g></svg>