<svg xmlns:xlink="http://www.w3.org/1999/xlink" xmlns="http://www.w3.org/2000/svg" viewBox="0 0 371 91.09532206404747" preserveAspectRatio="xMidYMid meet" class="css-88gl6m" id="fgabhfha" width="371"  height="91.09532206404747" ><defs id="SvgjsDefs1001"></defs><g id="SvgjsG1007" featurekey="symbolFeature-0" transform="matrix(1.7023286102563377,0,0,1.7023286102563377,266.5229202055543,-8.92669296120524)" fill="#FFFFFF"><g xmlns="http://www.w3.org/2000/svg" fill="#FFFFFF"><path d="M32.014,5.245c7.9,0,15.8-0.002,23.701,0.001c2.566,0.001,4.554,1.392,5.377,3.809c0.185,0.543,0.266,1.147,0.267,1.723   c0.015,10.426,0.019,20.852,0.007,31.277c-0.004,3.056-2.287,5.404-5.339,5.554c-0.161,0.008-0.323,0.007-0.485,0.007   c-15.699,0-31.399-0.002-47.098,0.003c-2.245,0.001-3.978-0.898-5.14-2.832c-0.546-0.91-0.676-1.917-0.674-2.967   c0.013-6.668,0.006-13.335,0.007-20.003c0.001-3.758-0.015-7.516,0.014-11.274C2.666,8.264,4.13,6.265,6.296,5.562   c0.64-0.208,1.343-0.303,2.018-0.304C16.213,5.238,24.114,5.245,32.014,5.245z M31.858,40.869c7.881,0,15.761,0.001,23.642-0.001   c1.923,0,2.963-1.033,2.963-2.942c0.001-9.012,0.001-18.024,0-27.037c0-2.02-0.99-3.006-3.009-3.006c-15.579,0-31.159,0-46.738,0   c-0.242,0-0.485-0.01-0.727,0.001C6.336,7.954,5.344,8.98,5.343,10.634c-0.003,9.174-0.003,18.348,0.003,27.521   c0,0.318,0.031,0.652,0.13,0.951c0.379,1.142,1.358,1.761,2.739,1.762C16.097,40.87,23.977,40.869,31.858,40.869z M31.966,45.498   c0.715,0.009,1.277-0.519,1.299-1.222c0.023-0.727-0.55-1.306-1.288-1.3c-0.687,0.005-1.274,0.585-1.278,1.263   C30.696,44.927,31.261,45.489,31.966,45.498z" fill="#FFFFFF"></path><path d="M37.585,55.59c1.273,0,2.46-0.005,3.647,0.001c1.21,0.007,1.733,0.56,1.682,1.76c-0.036,0.869-0.543,1.398-1.412,1.399   c-6.363,0.008-12.725,0.008-19.088,0c-0.907-0.001-1.37-0.514-1.393-1.461c-0.025-1.073,0.423-1.659,1.367-1.687   c1.13-0.034,2.262-0.029,3.393-0.005c0.477,0.01,0.634-0.155,0.624-0.63c-0.026-1.292-0.015-2.585-0.006-3.878   c0.006-0.951,0.416-1.353,1.367-1.354c2.808-0.003,5.615-0.003,8.423,0c0.979,0.001,1.392,0.414,1.394,1.394   C37.587,52.583,37.585,54.035,37.585,55.59z" fill="#FFFFFF"></path><g fill="#FFFFFF"><path d="M54.491,17.945c-0.795,0-1.444,0.618-1.497,1.4l-7.841,3.822l-4.862-3.555c0.006-0.054,0.01-0.109,0.01-0.165    c0-0.829-0.672-1.502-1.502-1.502c-0.762,0-1.39,0.568-1.487,1.303l-9.668,3.959l-4.001-2.272    c-0.004-0.826-0.674-1.495-1.501-1.495c-0.827,0-1.498,0.669-1.501,1.496l-6.627,3.767l-3.006-1.904    c0.001-0.022,0.003-0.043,0.003-0.065c0-0.829-0.672-1.502-1.502-1.502c-0.829,0-1.502,0.672-1.502,1.502    c0,0.829,0.672,1.502,1.502,1.502c0.253,0,0.491-0.063,0.7-0.174l3.762,2.383l7.408-4.212c0.224,0.132,0.483,0.209,0.762,0.209    c0.279,0,0.539-0.077,0.762-0.21l4.634,2.632l10.34-4.234c0.254,0.198,0.573,0.317,0.921,0.317c0.217,0,0.423-0.047,0.61-0.13    l5.589,4.087l8.649-4.216c0.24,0.164,0.531,0.259,0.843,0.259c0.829,0,1.502-0.672,1.502-1.502S55.321,17.945,54.491,17.945z" fill="#FFFFFF"></path><path d="M44.805,27.078l-5.833-4.265c-0.386,0.019-0.776-0.029-1.146-0.141l-10.42,4.267l-4.708-2.674    c-0.366,0.062-0.745,0.062-1.111,0l-7.668,4.359l-4.015-2.543c-0.131,0.016-0.263,0.024-0.396,0.024v9.172h44.982V22.817    c-0.26,0-0.516-0.03-0.765-0.087L44.805,27.078z" fill="#FFFFFF"></path></g></g></g><g id="SvgjsG1008" featurekey="nameFeature-0" transform="matrix(2.422480691790934,0,0,2.422480691790934,-4.844961383581868,-17.069759060460736)" fill="#FFFFFF"><path d="M8 30 l0 10 l-6 0 l0 -9.96 c0 -6.64 4.88 -10.24 11.04 -10.24 c0.2 0 0.48 0 0.76 0.04 s0.6 0.12 0.88 0.16 l0 5.8 c-0.2 -0.04 -0.44 -0.08 -0.72 -0.12 s-0.52 -0.08 -0.72 -0.08 c-1 0 -1.8 0.12 -2.48 0.32 c-1.12 0.4 -2.12 1.16 -2.48 2.36 c-0.2 0.52 -0.28 1.12 -0.28 1.72 z M31.32 30 c-0.16 -2.92 -1.48 -4.64 -4.52 -4.64 c-0.84 0 -1.56 0.12 -2.16 0.36 c-1.84 0.84 -2.52 2.4 -2.52 4.32 c0 0.64 0.08 1.24 0.28 1.76 c0.6 2.08 2.4 2.84 4.4 2.84 c3.04 0 4.52 -1.64 4.52 -4.64 z M38.92 40 l-6 0 c-0.4 -1 -0.76 -2 -1 -3.04 c-1.36 2.24 -3.44 3.24 -6 3.24 c-5.72 0 -9.8 -4.8 -9.8 -10.28 c0 -6.32 4.72 -10.12 10.68 -10.12 c6.36 0 10.36 4.08 10.52 10.2 c0.04 0.52 0.04 1.12 0.04 1.84 c0 2.8 0.44 5.6 1.56 8.16 z M45.88 34.44 l13.76 0 l0 5.56 l-19.36 0 l0 -6.48 c0 -5.24 4.48 -6.56 8.72 -7.24 c0.92 -0.2 1.68 -0.36 2.28 -0.56 c0.56 -0.16 1 -0.32 1.32 -0.48 c0.28 -0.16 0.48 -0.32 0.6 -0.48 c0.12 -0.12 0.16 -0.28 0.16 -0.4 c0 -0.36 -0.24 -0.56 -0.76 -0.68 c-0.52 -0.08 -1.36 -0.12 -2.52 -0.12 c-2.36 0 -4.68 0.12 -7.04 0.4 c-0.68 0.12 -1.24 0.2 -1.72 0.32 l0 -5.6 c1.32 -0.36 2.72 -0.52 4.08 -0.68 c0.72 -0.04 1.44 -0.12 2.12 -0.16 s1.32 -0.04 1.84 -0.04 c4.52 0 9.72 1.24 9.72 6.6 c0 5.16 -4 6.2 -8.08 6.96 c-1.88 0.36 -3.2 0.76 -3.96 1.16 s-1.16 0.96 -1.16 1.64 l0 0.28 z M68.12 27.6 c0.6 0.2 1.28 0.36 2 0.44 c0.72 0.12 1.4 0.16 2.04 0.16 c0.8 0 2.84 -0.16 2.84 -1.32 c0 -1.24 -1.76 -1.28 -2.64 -1.28 c-1.76 0 -3.28 0.4 -4.24 2 z M79.44 33.76 l0 5.6 c-2.24 0.52 -4.48 0.88 -6.8 0.88 c-6.36 0 -11.08 -3.72 -11.08 -10.16 c0 -6.36 4.56 -10.28 10.6 -10.28 c4.12 0 8.88 1.96 8.88 6.64 c0 4.64 -5.04 6.36 -8.92 6.36 c-1.48 0 -2.96 -0.4 -4.32 -0.96 c0.8 2.24 3.2 2.6 5.28 2.6 c1.08 0 2.16 -0.04 3.24 -0.2 c1 -0.08 2.16 -0.2 3.12 -0.48 z M90 30 c0 2.96 1.48 4.64 4.48 4.64 c0.84 0 1.6 -0.12 2.2 -0.4 c1.12 -0.44 1.88 -1.28 2.28 -2.44 c0.16 -0.56 0.24 -1.16 0.24 -1.8 s-0.08 -1.24 -0.24 -1.8 c-0.44 -1.24 -1.12 -1.92 -2.28 -2.48 c-0.6 -0.24 -1.36 -0.36 -2.2 -0.36 c-3 0 -4.48 1.68 -4.48 4.64 z M84 12 l6 0 l0 10 c1.36 -1.56 3.2 -2.2 5.24 -2.2 c5.84 0 9.96 4.68 9.96 10.28 c0 6.32 -4.68 10.12 -10.64 10.12 c-6.2 0 -10.56 -4.08 -10.56 -10.2 l0 -18 z" fill="#FFFFFF"></path></g></svg>